<svg width="1200" height="600" viewBox="0 0 1200 600" xmlns="http://www.w3.org/2000/svg">
  <!-- Browser window frame -->
  <rect x="0" y="0" width="1200" height="600" rx="8" fill="#f8fafc" />
  <rect x="0" y="0" width="1200" height="40" rx="8 8 0 0" fill="#334155" />
  
  <!-- Browser controls -->
  <circle cx="20" cy="20" r="6" fill="#ef4444" />
  <circle cx="40" cy="20" r="6" fill="#f59e0b" />
  <circle cx="60" cy="20" r="6" fill="#10b981" />
  
  <!-- URL bar -->
  <rect x="100" y="12" width="800" height="16" rx="8" fill="#475569" />
  
  <!-- Dashboard header -->
  <rect x="20" y="60" width="1160" height="100" rx="8" fill="url(#header-gradient)" />
  <rect x="40" y="80" width="200" height="24" rx="4" fill="#ffffff" opacity="0.9" />
  <rect x="40" y="116" width="300" height="12" rx="2" fill="#ffffff" opacity="0.6" />
  <rect x="1000" y="85" width="140" height="50" rx="25" fill="#ffffff" />
  
  <!-- Stats cards -->
  <g transform="translate(20, 180)">
    <!-- Card 1 -->
    <rect x="0" y="0" width="270" height="120" rx="8" fill="#ffffff" stroke="#e2e8f0" stroke-width="1" />
    <rect x="0" y="0" width="270" height="4" rx="2" fill="#3b82f6" />
    <rect x="20" y="20" width="80" height="16" rx="2" fill="#94a3b8" opacity="0.7" />
    <rect x="20" y="60" width="40" height="40" rx="4" fill="#dbeafe" />
    <rect x="70" y="60" width="30" height="30" rx="2" fill="#3b82f6" opacity="0.9" />
    <rect x="70" y="95" width="120" height="10" rx="2" fill="#94a3b8" opacity="0.3" />
    
    <!-- Card 2 -->
    <rect x="290" y="0" width="270" height="120" rx="8" fill="#ffffff" stroke="#e2e8f0" stroke-width="1" />
    <rect x="290" y="0" width="270" height="4" rx="2" fill="#22c55e" />
    <rect x="310" y="20" width="80" height="16" rx="2" fill="#94a3b8" opacity="0.7" />
    <rect x="310" y="60" width="40" height="40" rx="4" fill="#dcfce7" />
    <rect x="360" y="60" width="30" height="30" rx="2" fill="#22c55e" opacity="0.9" />
    <rect x="360" y="95" width="120" height="10" rx="2" fill="#94a3b8" opacity="0.3" />
    
    <!-- Card 3 -->
    <rect x="580" y="0" width="270" height="120" rx="8" fill="#ffffff" stroke="#e2e8f0" stroke-width="1" />
    <rect x="580" y="0" width="270" height="4" rx="2" fill="#f59e0b" />
    <rect x="600" y="20" width="80" height="16" rx="2" fill="#94a3b8" opacity="0.7" />
    <rect x="600" y="60" width="40" height="40" rx="4" fill="#fef3c7" />
    <rect x="650" y="60" width="30" height="30" rx="2" fill="#f59e0b" opacity="0.9" />
    <rect x="650" y="95" width="120" height="10" rx="2" fill="#94a3b8" opacity="0.3" />
    
    <!-- Card 4 -->
    <rect x="870" y="0" width="270" height="120" rx="8" fill="#ffffff" stroke="#e2e8f0" stroke-width="1" />
    <rect x="870" y="0" width="270" height="4" rx="2" fill="#ef4444" />
    <rect x="890" y="20" width="80" height="16" rx="2" fill="#94a3b8" opacity="0.7" />
    <rect x="890" y="60" width="40" height="40" rx="4" fill="#fee2e2" />
    <rect x="940" y="60" width="30" height="30" rx="2" fill="#ef4444" opacity="0.9" />
    <rect x="940" y="95" width="120" height="10" rx="2" fill="#94a3b8" opacity="0.3" />
  </g>
  
  <!-- Task list container -->
  <rect x="20" y="320" width="1160" height="260" rx="8" fill="#ffffff" stroke="#e2e8f0" stroke-width="1" />
  <rect x="20" y="320" width="1160" height="60" rx="8 8 0 0" fill="#ffffff" stroke="#e2e8f0" stroke-width="1" />
  <rect x="40" y="340" width="120" height="24" rx="2" fill="#1e293b" opacity="0.8" />
  <rect x="40" y="370" width="300" height="12" rx="2" fill="#94a3b8" opacity="0.3" />
  
  <!-- Task items -->
  <g transform="translate(40, 400)">
    <!-- Task 1 -->
    <rect x="0" y="0" width="1120" height="70" rx="4" fill="#ffffff" stroke="#e2e8f0" stroke-width="1" />
    <rect x="0" y="0" width="8" height="70" rx="4 0 0 4" fill="#3b82f6" />
    <rect x="20" y="20" width="200" height="16" rx="2" fill="#1e293b" opacity="0.8" />
    <rect x="20" y="44" width="120" height="10" rx="2" fill="#94a3b8" opacity="0.4" />
    <rect x="1020" y="15" width="40" height="40" rx="20" fill="#dbeafe" />
    <rect x="960" y="25" width="40" height="20" rx="10" fill="#bfdbfe" />
    
    <!-- Task 2 -->
    <rect x="0" y="80" width="1120" height="70" rx="4" fill="#ffffff" stroke="#e2e8f0" stroke-width="1" />
    <rect x="0" y="80" width="8" height="70" rx="4 0 0 4" fill="#f59e0b" />
    <rect x="20" y="100" width="220" height="16" rx="2" fill="#1e293b" opacity="0.8" />
    <rect x="20" y="124" width="140" height="10" rx="2" fill="#94a3b8" opacity="0.4" />
    <rect x="1020" y="95" width="40" height="40" rx="20" fill="#fef3c7" />
    <rect x="960" y="105" width="40" height="20" rx="10" fill="#fde68a" />
  </g>
  
  <!-- Gradient definitions -->
  <defs>
    <linearGradient id="header-gradient" x1="0" y1="0" x2="100%" y2="0">
      <stop offset="0%" stop-color="#3b82f6" />
      <stop offset="100%" stop-color="#4f46e5" />
    </linearGradient>
  </defs>
</svg>
